ply
format ascii 1.0
comment Created by Blender 2.83.0 - www.blender.org, source file: 'cutupcyl.blend'
element vertex 388
property float x
property float y
property float z
property float nx
property float ny
property float nz
property float s
property float t
element face 127
property list uchar uint vertex_indices
end_header
0.000000 0.850000 -1.000000 0.195090 0.980785 0.000000 1.000000 0.500000
0.000000 0.850000 0.840282 0.195090 0.980785 0.000000 1.000000 1.000000
0.325281 0.785298 0.722572 0.195090 0.980785 0.000000 0.937500 1.000000
0.325281 0.785298 -1.000000 0.195090 0.980785 0.000000 0.937500 0.500000
0.325281 0.785298 -1.000000 0.555475 0.831533 0.000033 0.937500 0.500000
0.325281 0.785298 0.722572 0.555475 0.831533 0.000033 0.937500 1.000000
0.597207 0.603465 0.722311 0.555475 0.831533 0.000033 0.875869 1.000000
0.601041 0.601132 0.722746 0.555475 0.831533 0.000033 0.875000 1.000000
0.601041 0.601041 -1.000000 0.555475 0.831533 0.000033 0.875000 0.500000
0.601041 0.601041 -1.000000 0.831513 0.555505 -0.000015 0.875000 0.500000
0.601041 0.601132 0.722746 0.831513 0.555505 -0.000015 0.875000 1.000000
0.785298 0.325281 0.796603 0.831513 0.555505 -0.000015 0.812500 1.000000
0.785298 0.325281 -1.000000 0.831513 0.555505 -0.000015 0.812500 0.500000
0.785298 0.325281 -1.000000 0.980785 0.195090 0.000000 0.812500 0.500000
0.785298 0.325281 0.796603 0.980785 0.195090 0.000000 0.812500 1.000000
0.850000 -0.000000 0.796603 0.980785 0.195090 0.000000 0.750000 1.000000
0.850000 -0.000000 -1.000000 0.980785 0.195090 0.000000 0.750000 0.500000
0.850000 -0.000000 -1.000000 0.980785 -0.195090 0.000000 0.750000 0.500000
0.850000 -0.000000 0.796603 0.980785 -0.195090 0.000000 0.750000 1.000000
0.785298 -0.325281 0.778622 0.980785 -0.195090 0.000000 0.687500 1.000000
0.785298 -0.325281 -1.000000 0.980785 -0.195090 0.000000 0.687500 0.500000
0.785298 -0.325281 -1.000000 0.831469 -0.555570 0.000000 0.687500 0.500000
0.785298 -0.325281 0.778622 0.831469 -0.555570 0.000000 0.687500 1.000000
0.601041 -0.601041 0.778622 0.831469 -0.555570 0.000000 0.625000 1.000000
0.601041 -0.601041 -1.000000 0.831469 -0.555570 0.000000 0.625000 0.500000
0.601041 -0.601041 -1.000000 0.555570 -0.831470 0.000000 0.625000 0.500000
0.601041 -0.601041 0.778622 0.555570 -0.831470 0.000000 0.625000 1.000000
0.325281 -0.785298 1.000000 0.555570 -0.831470 0.000000 0.562500 1.000000
0.325281 -0.785298 -1.000000 0.555570 -0.831470 0.000000 0.562500 0.500000
0.325281 -0.785298 -1.000000 0.195091 -0.980785 0.000000 0.562500 0.500000
0.325281 -0.785298 1.000000 0.195091 -0.980785 0.000000 0.562500 1.000000
0.000000 -0.850000 0.816624 0.195091 -0.980785 0.000000 0.500000 1.000000
0.000000 -0.850000 -1.000000 0.195091 -0.980785 0.000000 0.500000 0.500000
0.000000 -0.850000 -1.000000 -0.195090 -0.980785 0.000000 0.500000 0.500000
0.000000 -0.850000 0.816624 -0.195090 -0.980785 0.000000 0.500000 1.000000
-0.325281 -0.785298 0.816624 -0.195090 -0.980785 0.000000 0.437500 1.000000
-0.325281 -0.785298 -1.000000 -0.195090 -0.980785 0.000000 0.437500 0.500000
-0.325281 -0.785298 -1.000000 -0.555570 -0.831470 0.000000 0.437500 0.500000
-0.325281 -0.785298 0.816624 -0.555570 -0.831470 0.000000 0.437500 1.000000
-0.601041 -0.601041 1.000000 -0.555570 -0.831470 0.000000 0.375000 1.000000
-0.601041 -0.601041 -1.000000 -0.555570 -0.831470 0.000000 0.375000 0.500000
-0.601041 -0.601041 -1.000000 -0.831469 -0.555570 0.000000 0.375000 0.500000
-0.601041 -0.601041 1.000000 -0.831469 -0.555570 0.000000 0.375000 1.000000
-0.785298 -0.325281 0.651715 -0.831469 -0.555570 0.000000 0.312500 1.000000
-0.785298 -0.325281 -1.000000 -0.831469 -0.555570 0.000000 0.312500 0.500000
-0.785298 -0.325281 -1.000000 -0.980785 -0.195090 0.000000 0.312500 0.500000
-0.785298 -0.325281 0.651715 -0.980785 -0.195090 0.000000 0.312500 1.000000
-0.850000 0.000000 1.000000 -0.980785 -0.195090 0.000000 0.250000 1.000000
-0.850000 0.000000 -1.000000 -0.980785 -0.195090 0.000000 0.250000 0.500000
-0.850000 0.000000 -1.000000 -0.980785 0.195091 0.000000 0.250000 0.500000
-0.850000 0.000000 1.000000 -0.980785 0.195091 0.000000 0.250000 1.000000
-0.785298 0.325281 0.782741 -0.980785 0.195091 0.000000 0.187500 1.000000
-0.785298 0.325281 -1.000000 -0.980785 0.195091 0.000000 0.187500 0.500000
-0.785298 0.325281 -1.000000 -0.831469 0.555570 0.000000 0.187500 0.500000
-0.785298 0.325281 0.782741 -0.831469 0.555570 0.000000 0.187500 1.000000
-0.601041 0.601041 0.782741 -0.831469 0.555570 0.000000 0.125000 1.000000
-0.601041 0.601041 -1.000000 -0.831469 0.555570 0.000000 0.125000 0.500000
0.325281 0.785298 0.722572 -0.001612 0.002866 0.999995 0.341844 0.471731
0.162950 0.693986 0.722572 -0.001612 0.002866 0.999995 0.296009 0.445949
0.325283 0.603295 0.723093 -0.001612 0.002866 0.999995 0.341844 0.420265
-0.601041 0.601041 -1.000000 -0.555570 0.831470 0.000000 0.125000 0.500000
-0.601041 0.601041 0.782741 -0.555570 0.831470 0.000000 0.125000 1.000000
-0.325281 0.785298 1.144341 -0.555570 0.831470 0.000000 0.062500 1.000000
-0.325281 0.785298 -1.000000 -0.555570 0.831470 0.000000 0.062500 0.500000
-0.325281 0.785298 -1.000000 -0.195090 0.980785 0.000000 0.062500 0.500000
-0.325281 0.785298 1.144341 -0.195090 0.980785 0.000000 0.062500 1.000000
0.000000 0.850000 0.840282 -0.195090 0.980785 0.000000 0.000000 1.000000
0.000000 0.850000 -1.000000 -0.195090 0.980785 0.000000 0.000000 0.500000
0.000000 0.850000 -1.000000 -0.000000 0.000000 -1.000000 0.750000 0.490000
0.325281 0.785298 -1.000000 -0.000000 0.000000 -1.000000 0.841844 0.471731
0.601041 0.601041 -1.000000 -0.000000 0.000000 -1.000000 0.919706 0.419706
0.785298 0.325281 -1.000000 -0.000000 0.000000 -1.000000 0.971731 0.341844
0.850000 -0.000000 -1.000000 -0.000000 0.000000 -1.000000 0.990000 0.250000
0.785298 -0.325281 -1.000000 -0.000000 0.000000 -1.000000 0.971731 0.158156
0.601041 -0.601041 -1.000000 -0.000000 0.000000 -1.000000 0.919706 0.080294
0.325281 -0.785298 -1.000000 -0.000000 0.000000 -1.000000 0.841844 0.028269
0.000000 -0.850000 -1.000000 -0.000000 0.000000 -1.000000 0.750000 0.010000
-0.325281 -0.785298 -1.000000 -0.000000 0.000000 -1.000000 0.658156 0.028269
-0.601041 -0.601041 -1.000000 -0.000000 0.000000 -1.000000 0.580294 0.080294
-0.785298 -0.325281 -1.000000 -0.000000 0.000000 -1.000000 0.528269 0.158156
-0.850000 0.000000 -1.000000 -0.000000 0.000000 -1.000000 0.510000 0.250000
-0.785298 0.325281 -1.000000 -0.000000 0.000000 -1.000000 0.528269 0.341844
-0.601041 0.601041 -1.000000 -0.000000 0.000000 -1.000000 0.580294 0.419706
-0.325281 0.785298 -1.000000 -0.000000 0.000000 -1.000000 0.658156 0.471731
0.850000 -0.000000 0.796603 -0.000000 -0.055195 0.998476 0.490000 0.250000
0.785298 -0.000000 0.796603 -0.000000 -0.055195 0.998476 0.471731 0.250000
0.785298 -0.325281 0.778622 -0.000000 -0.055195 0.998476 0.471731 0.158156
0.325281 -0.785298 1.000000 -0.491086 -0.000001 0.871111 0.341844 0.028269
0.000000 -0.785298 0.816624 -0.491086 -0.000001 0.871111 0.250000 0.028269
0.000000 -0.850000 0.816624 -0.491086 -0.000001 0.871111 0.250000 0.010000
0.601041 -0.601041 0.778622 0.626022 -0.000000 0.779805 0.419706 0.080294
0.325281 -0.601041 1.000000 0.626022 -0.000000 0.779805 0.341844 0.080294
0.325281 -0.785298 1.000000 0.626022 -0.000000 0.779805 0.341844 0.028269
0.785298 -0.325281 0.778622 0.000000 0.000000 1.000000 0.471731 0.158156
0.601041 -0.325281 0.778622 0.000000 0.000000 1.000000 0.419706 0.158156
0.601041 -0.601041 0.778622 0.000000 0.000000 1.000000 0.419706 0.080294
0.785298 0.325281 0.796603 0.000000 -0.648923 0.760854 0.471731 0.341844
0.601041 0.325281 0.796603 0.000000 -0.648923 0.760854 0.419706 0.341844
0.601041 -0.000000 0.519175 0.000000 -0.648923 0.760854 0.419706 0.250000
0.597207 0.603465 0.722311 0.004744 0.462403 0.886657 0.418623 0.420429
0.325283 0.603295 0.723093 0.004744 0.462403 0.886657 0.341844 0.420265
0.463652 0.463380 0.796082 0.004744 0.462403 0.886657 0.380914 0.380914
0.601041 0.601132 0.722746 0.004744 0.462403 0.886657 0.419706 0.419706
-0.325281 0.785298 1.144341 0.000000 0.978100 0.208135 0.158156 0.471731
-0.000000 0.785298 1.144341 0.000000 0.978100 0.208135 0.250000 0.471731
0.000000 0.850000 0.840282 0.000000 0.978100 0.208135 0.250000 0.490000
-0.136903 0.042598 0.694979 -0.607360 -0.607360 0.512081 0.250000 0.250000
-0.136904 0.367879 1.080782 -0.607360 -0.607360 0.512081 0.250000 0.341844
-0.299544 0.205238 0.694979 -0.607360 -0.607360 0.512081 0.204078 0.295922
0.000000 -0.850000 0.816624 -0.000000 0.000000 1.000000 0.250000 0.010000
0.000000 -0.785298 0.816624 -0.000000 0.000000 1.000000 0.250000 0.028269
-0.325281 -0.785298 0.816624 -0.000000 0.000000 1.000000 0.158156 0.028269
-0.136904 0.367879 1.080782 -0.435018 0.352429 0.828585 0.250000 0.341844
-0.299748 0.506227 0.936442 -0.435018 0.352429 0.828585 0.204020 0.380907
-0.325281 0.325281 1.000000 -0.435018 0.352429 0.828585 0.158156 0.341844
-0.162640 -0.693169 0.816624 -0.000000 0.000000 1.000000 0.204078 0.054282
0.000000 0.602325 1.144341 -0.001312 0.614159 0.789181 0.250000 0.420068
-0.162332 0.693638 1.073009 -0.001312 0.614159 0.789181 0.204165 0.445851
-0.325281 0.601630 1.144341 -0.001312 0.614159 0.789181 0.158156 0.419872
0.000000 -0.601041 0.816624 0.803619 0.480015 0.351827 0.250000 0.080294
-0.136904 -0.282683 0.694979 0.803619 0.480015 0.351827 0.250000 0.158156
-0.162641 -0.463161 1.000000 0.803619 0.480015 0.351827 0.204078 0.119225
-0.136904 -0.282683 0.694979 0.256441 0.256440 0.931921 0.250000 0.158156
-0.299544 -0.120043 0.694979 0.256441 0.256440 0.931921 0.204078 0.204078
-0.325281 -0.325281 0.758537 0.256441 0.256440 0.931921 0.158156 0.158156
0.000000 0.850000 0.840282 0.260553 0.944316 0.200946 0.250000 0.490000
-0.000000 0.785298 1.144341 0.260553 0.944316 0.200946 0.250000 0.471731
0.325281 0.785298 0.722572 0.260553 0.944316 0.200946 0.341844 0.471731
-0.325281 -0.325281 0.758537 -0.610167 -0.517275 0.600102 0.158156 0.158156
-0.462184 0.042598 0.936442 -0.610167 -0.517275 0.600102 0.158156 0.250000
-0.463161 -0.162641 0.758537 -0.610167 -0.517275 0.600102 0.119225 0.204078
-0.325281 -0.785298 0.816624 0.553730 -0.000000 0.832696 0.158156 0.028269
-0.325281 -0.601041 0.816624 0.553730 -0.000000 0.832696 0.158156 0.080294
-0.601041 -0.601041 1.000000 0.553730 -0.000000 0.832696 0.080294 0.080294
-0.462184 0.042598 0.936442 -0.855736 -0.247531 0.454362 0.158156 0.250000
-0.463161 0.162641 1.000000 -0.855736 -0.247531 0.454362 0.119225 0.295922
-0.601041 0.000000 0.651715 -0.855736 -0.247531 0.454362 0.080294 0.250000
-0.325281 0.601630 1.144341 -0.795161 0.000002 0.606398 0.158156 0.419872
-0.325281 0.785298 1.144341 -0.795161 0.000002 0.606398 0.158156 0.471731
-0.601041 0.601041 0.782741 -0.795161 0.000002 0.606398 0.080294 0.419706
-0.325281 -0.601041 0.816624 0.484422 -0.484422 0.728472 0.158156 0.080294
-0.463161 -0.463161 1.000000 0.484422 -0.484422 0.728472 0.119225 0.119225
-0.601041 -0.601041 1.000000 0.484422 -0.484422 0.728472 0.080294 0.080294
-0.325281 0.325281 1.000000 -0.526240 -0.526240 0.667939 0.158156 0.341844
-0.463308 0.463308 1.000000 -0.526240 -0.526240 0.667939 0.119184 0.380817
-0.601041 0.325281 0.782741 -0.526240 -0.526240 0.667939 0.080294 0.341844
-0.601041 0.325281 0.782741 -0.000000 0.000000 1.000000 0.080294 0.341844
-0.601041 0.601041 0.782741 -0.000000 0.000000 1.000000 0.080294 0.419706
-0.785298 0.325281 0.782741 -0.000000 0.000000 1.000000 0.028269 0.341844
-0.601041 0.000000 0.651715 0.550611 -0.311896 0.774305 0.080294 0.250000
-0.601041 0.325281 0.782741 0.550611 -0.311896 0.774305 0.080294 0.341844
-0.693169 0.162641 0.782741 0.550611 -0.311896 0.774305 0.054282 0.295922
-0.601041 -0.325281 0.651715 -0.000000 0.000000 1.000000 0.080294 0.158156
-0.601041 0.000000 0.651715 -0.000000 0.000000 1.000000 0.080294 0.250000
-0.693169 -0.162641 0.651715 -0.000000 0.000000 1.000000 0.054282 0.204078
-0.601041 -0.601041 1.000000 -0.000000 0.784008 0.620750 0.080294 0.080294
-0.601041 -0.325281 0.651715 -0.000000 0.784008 0.620750 0.080294 0.158156
-0.785298 -0.325281 0.651715 -0.000000 0.784008 0.620750 0.028269 0.158156
-0.785298 0.000000 0.651715 0.980528 -0.073375 0.182156 0.028269 0.250000
-0.785298 0.325281 0.782741 0.980528 -0.073375 0.182156 0.028269 0.341844
-0.850000 0.000000 1.000000 0.980528 -0.073375 0.182156 0.010000 0.250000
-0.785298 -0.325281 0.651715 0.983178 0.000001 0.182649 0.028269 0.158156
-0.785298 0.000000 0.651715 0.983178 0.000001 0.182649 0.028269 0.250000
-0.850000 0.000000 1.000000 0.983178 0.000001 0.182649 0.010000 0.250000
0.188377 0.042598 0.936442 0.544353 0.544353 0.638247 0.341844 0.250000
0.188377 0.367879 0.659013 0.544353 0.544353 0.638247 0.341844 0.341844
0.025737 0.205238 0.936442 0.544353 0.544353 0.638247 0.295922 0.295922
0.188377 0.367879 0.659013 0.580607 -0.679990 0.447782 0.341844 0.341844
0.025533 0.506575 1.080782 0.580607 -0.679990 0.447782 0.295864 0.381005
-0.136904 0.367879 1.080782 0.580607 -0.679990 0.447782 0.250000 0.341844
0.325281 -0.785298 1.000000 -0.748139 0.000000 0.663543 0.341844 0.028269
0.325281 -0.601041 1.000000 -0.748139 0.000000 0.663543 0.341844 0.080294
0.162640 -0.693169 0.816624 -0.748139 0.000000 0.663543 0.295922 0.054282
0.325283 0.603295 0.723093 0.002875 0.002866 0.999992 0.341844 0.420265
0.597207 0.603465 0.722311 0.002875 0.002866 0.999992 0.418623 0.420429
0.325281 0.785298 0.722572 0.002875 0.002866 0.999992 0.341844 0.471731
0.325281 -0.601041 1.000000 -0.121812 0.143687 0.982098 0.341844 0.080294
0.188377 -0.282683 0.936442 -0.121812 0.143687 0.982098 0.341844 0.158156
0.025737 -0.420563 0.936442 -0.121812 0.143687 0.982098 0.295922 0.119225
0.188377 -0.282683 0.936442 -0.000000 0.000000 1.000000 0.341844 0.158156
0.188377 0.042598 0.936442 -0.000000 0.000000 1.000000 0.341844 0.250000
0.025737 -0.120043 0.936442 -0.000000 0.000000 1.000000 0.295922 0.204078
0.601041 -0.000000 0.519175 0.557012 -0.538933 0.631893 0.419706 0.250000
0.601041 0.325281 0.796603 0.557012 -0.538933 0.631893 0.419706 0.341844
0.326257 0.205238 0.936442 0.557012 -0.538933 0.631893 0.380775 0.295922
0.601041 0.601132 0.722746 0.000000 0.258634 0.965975 0.419706 0.419706
0.601041 0.325281 0.796603 0.000000 0.258634 0.965975 0.419706 0.341844
0.785298 0.325281 0.796603 0.000000 0.258634 0.965975 0.471731 0.341844
0.463161 -0.463161 0.778622 -0.000000 0.000000 1.000000 0.380775 0.119225
0.601041 -0.325281 0.778622 0.592515 0.502310 0.629771 0.419706 0.158156
0.601041 -0.000000 0.519175 0.592515 0.502310 0.629771 0.419706 0.250000
0.463161 -0.162641 0.778622 0.592515 0.502310 0.629771 0.380775 0.204078
0.785298 -0.000000 0.796603 0.000000 0.000000 1.000000 0.471731 0.250000
0.850000 -0.000000 0.796603 0.000000 0.000000 1.000000 0.490000 0.250000
0.785298 0.325281 0.796603 0.000000 0.000000 1.000000 0.471731 0.341844
0.785298 -0.325281 0.778622 -0.096980 -0.054935 0.993769 0.471731 0.158156
0.785298 -0.000000 0.796603 -0.096980 -0.054935 0.993769 0.471731 0.250000
0.693169 -0.162641 0.778622 -0.096980 -0.054935 0.993769 0.445718 0.204078
0.000000 -0.601041 0.816624 -0.861148 -0.190182 0.471440 0.250000 0.080294
0.025737 -0.420563 0.936442 -0.861148 -0.190182 0.471440 0.295922 0.119225
-0.136904 -0.282683 0.694979 -0.861148 -0.190182 0.471440 0.250000 0.158156
0.601041 -0.000000 0.519175 -0.833012 -0.000000 0.553254 0.419706 0.250000
0.785298 -0.000000 0.796603 -0.833012 -0.000000 0.553254 0.471731 0.250000
0.785298 0.325281 0.796603 -0.833012 -0.000000 0.553254 0.471731 0.341844
0.188377 -0.282683 0.936442 0.498042 0.000000 0.867153 0.341844 0.158156
0.463161 -0.162641 0.778622 0.498042 0.000000 0.867153 0.380775 0.204078
0.188377 0.042598 0.936442 0.498042 0.000000 0.867153 0.341844 0.250000
-0.325281 -0.601041 0.816624 0.000000 0.000000 1.000000 0.158156 0.080294
-0.601041 0.000000 0.651715 -0.612447 -0.000000 0.790511 0.080294 0.250000
-0.601041 -0.325281 0.651715 -0.612447 -0.000000 0.790511 0.080294 0.158156
-0.463161 -0.162641 0.758537 -0.612447 -0.000000 0.790511 0.119225 0.204078
-0.785298 0.325281 0.782741 -0.550612 -0.311896 0.774305 0.028269 0.341844
-0.785298 0.000000 0.651715 -0.550612 -0.311896 0.774305 0.028269 0.250000
-0.693169 0.162641 0.782741 -0.550612 -0.311896 0.774305 0.054282 0.295922
-0.325281 -0.325281 0.758537 -0.787563 0.127018 0.603002 0.158156 0.158156
-0.325281 -0.601041 0.816624 -0.787563 0.127018 0.603002 0.158156 0.080294
-0.162641 -0.463161 1.000000 -0.787563 0.127018 0.603002 0.204078 0.119225
0.000000 -0.601041 0.816624 0.000000 -0.000000 1.000000 0.250000 0.080294
0.162640 -0.693169 0.816624 0.000000 -0.000000 1.000000 0.295922 0.054282
0.025737 -0.420563 0.936442 -0.437779 -0.453117 0.776553 0.295922 0.119225
0.000000 -0.601041 0.816624 -0.437779 -0.453117 0.776553 0.250000 0.080294
0.325281 -0.601041 1.000000 -0.437779 -0.453117 0.776553 0.341844 0.080294
-0.136904 -0.282683 0.694979 -0.487593 0.575155 0.656849 0.250000 0.158156
0.025737 -0.420563 0.936442 -0.487593 0.575155 0.656849 0.295922 0.119225
0.188377 -0.282683 0.936442 -0.487593 0.575155 0.656849 0.341844 0.158156
-0.462184 0.042598 0.936442 0.511997 -0.511997 0.689723 0.158156 0.250000
-0.299544 -0.120043 0.694979 0.511997 -0.511997 0.689723 0.204078 0.204078
-0.136903 0.042598 0.694979 0.511997 -0.511997 0.689723 0.250000 0.250000
-0.601041 0.325281 0.782741 -0.548019 0.464588 0.695582 0.080294 0.341844
-0.463161 0.162641 1.000000 -0.548019 0.464588 0.695582 0.119225 0.295922
-0.325281 0.325281 1.000000 -0.548019 0.464588 0.695582 0.158156 0.341844
-0.136904 -0.282683 0.694979 -0.829401 0.000001 0.558653 0.250000 0.158156
0.025737 -0.120043 0.936442 -0.829401 0.000001 0.558653 0.295922 0.204078
-0.136903 0.042598 0.694979 -0.829401 0.000001 0.558653 0.250000 0.250000
-0.162641 -0.463161 1.000000 -0.023488 0.861262 0.507617 0.204078 0.119225
-0.136904 -0.282683 0.694979 -0.023488 0.861262 0.507617 0.250000 0.158156
-0.325281 -0.325281 0.758537 -0.023488 0.861262 0.507617 0.158156 0.158156
-0.162641 -0.463161 1.000000 0.000000 -0.799271 0.600971 0.204078 0.119225
-0.325281 -0.601041 0.816624 0.000000 -0.799271 0.600971 0.158156 0.080294
0.000000 -0.601041 0.816624 0.000000 -0.799271 0.600971 0.250000 0.080294
0.188377 0.042598 0.936442 -0.607826 0.515290 0.604172 0.341844 0.250000
0.326257 0.205238 0.936442 -0.607826 0.515290 0.604172 0.380775 0.295922
0.188377 0.367879 0.659013 -0.607826 0.515290 0.604172 0.341844 0.341844
0.601041 0.601132 0.722746 0.248278 0.250536 0.935729 0.419706 0.419706
0.463652 0.463380 0.796082 0.248278 0.250536 0.935729 0.380914 0.380914
0.601041 0.325281 0.796603 0.248278 0.250536 0.935729 0.419706 0.341844
-0.601041 -0.601041 1.000000 -0.616991 0.616991 0.488512 0.080294 0.080294
-0.463161 -0.463161 1.000000 -0.616991 0.616991 0.488512 0.119225 0.119225
-0.601041 -0.325281 0.651715 -0.616991 0.616991 0.488512 0.080294 0.158156
-0.136903 0.042598 0.694979 0.000000 -0.000000 1.000000 0.250000 0.250000
-0.299544 -0.120043 0.694979 0.000000 -0.000000 1.000000 0.204078 0.204078
-0.136904 -0.282683 0.694979 0.000000 -0.000000 1.000000 0.250000 0.158156
-0.325281 -0.325281 0.758537 0.845723 0.058213 0.530437 0.158156 0.158156
-0.299544 -0.120043 0.694979 0.845723 0.058213 0.530437 0.204078 0.204078
-0.462184 0.042598 0.936442 0.845723 0.058213 0.530437 0.158156 0.250000
-0.136903 0.042598 0.694979 -0.188995 -0.750748 0.632975 0.250000 0.250000
0.025737 0.205238 0.936442 -0.188995 -0.750748 0.632975 0.295922 0.295922
-0.136904 0.367879 1.080782 -0.188995 -0.750748 0.632975 0.250000 0.341844
-0.136904 0.367879 1.080782 0.376260 -0.440664 0.815011 0.250000 0.341844
0.025533 0.506575 1.080782 0.376260 -0.440664 0.815011 0.295864 0.381005
0.000000 0.602325 1.144341 0.376260 -0.440664 0.815011 0.250000 0.420068
-0.463161 -0.162641 0.758537 -0.804850 -0.386534 0.450342 0.119225 0.204078
-0.462184 0.042598 0.936442 -0.804850 -0.386534 0.450342 0.158156 0.250000
-0.601041 0.000000 0.651715 -0.804850 -0.386534 0.450342 0.080294 0.250000
-0.463161 -0.162641 0.758537 -0.345388 -0.292806 0.891612 0.119225 0.204078
-0.601041 -0.325281 0.651715 -0.345388 -0.292806 0.891612 0.080294 0.158156
-0.325281 -0.325281 0.758537 -0.345388 -0.292806 0.891612 0.158156 0.158156
-0.462184 0.042598 0.936442 0.846410 -0.467326 0.255337 0.158156 0.250000
-0.299544 0.205238 0.694979 0.846410 -0.467326 0.255337 0.204078 0.295922
-0.325281 0.325281 1.000000 0.846410 -0.467326 0.255337 0.158156 0.341844
-0.325281 0.325281 1.000000 0.480466 -0.407320 0.776687 0.158156 0.341844
-0.463161 0.162641 1.000000 0.480466 -0.407320 0.776687 0.119225 0.295922
-0.462184 0.042598 0.936442 0.480466 -0.407320 0.776687 0.158156 0.250000
-0.325281 0.325281 1.000000 0.983798 -0.083001 0.158911 0.158156 0.341844
-0.299748 0.506227 0.936442 0.983798 -0.083001 0.158911 0.204020 0.380907
-0.325281 0.601630 1.144341 0.983798 -0.083001 0.158911 0.158156 0.419872
-0.785298 -0.325281 0.651715 0.000000 0.000000 1.000000 0.028269 0.158156
-0.785298 0.000000 0.651715 0.000000 0.000000 1.000000 0.028269 0.250000
0.000000 0.602325 1.144341 0.932803 0.000002 0.360387 0.250000 0.420068
0.162950 0.693986 0.722572 0.932803 0.000002 0.360387 0.296009 0.445949
-0.000000 0.785298 1.144341 0.932803 0.000002 0.360387 0.250000 0.471731
-0.601041 0.000000 0.651715 -0.885153 -0.173852 0.431602 0.080294 0.250000
-0.463161 0.162641 1.000000 -0.885153 -0.173852 0.431602 0.119225 0.295922
-0.601041 0.325281 0.782741 -0.885153 -0.173852 0.431602 0.080294 0.341844
-0.136903 0.042598 0.694979 -0.511997 0.511997 0.689724 0.250000 0.250000
0.025737 -0.120043 0.936442 -0.511997 0.511997 0.689724 0.295922 0.204078
0.188377 0.042598 0.936442 -0.511997 0.511997 0.689724 0.341844 0.250000
0.025737 -0.120043 0.936442 -0.511997 -0.511996 0.689724 0.295922 0.204078
-0.136904 -0.282683 0.694979 -0.511997 -0.511996 0.689724 0.250000 0.158156
0.188377 -0.282683 0.936442 -0.511997 -0.511996 0.689724 0.341844 0.158156
0.188377 -0.282683 0.936442 0.640792 0.405684 0.651772 0.341844 0.158156
0.325281 -0.601041 1.000000 0.640792 0.405684 0.651772 0.341844 0.080294
0.463161 -0.463161 0.778622 0.640792 0.405684 0.651772 0.380775 0.119225
-0.325281 0.325281 1.000000 0.051363 -0.927818 0.369481 0.158156 0.341844
-0.299544 0.205238 0.694979 0.051363 -0.927818 0.369481 0.204078 0.295922
-0.136904 0.367879 1.080782 0.051363 -0.927818 0.369481 0.250000 0.341844
-0.601041 0.601041 0.782741 -0.785179 0.158936 0.598526 0.080294 0.419706
-0.463308 0.463308 1.000000 -0.785179 0.158936 0.598526 0.119184 0.380817
-0.325281 0.601630 1.144341 -0.785179 0.158936 0.598526 0.158156 0.419872
-0.299544 0.205238 0.694979 0.511997 0.511997 0.689724 0.204078 0.295922
-0.462184 0.042598 0.936442 0.511997 0.511997 0.689724 0.158156 0.250000
-0.136903 0.042598 0.694979 0.511997 0.511997 0.689724 0.250000 0.250000
0.463161 -0.463161 0.778622 0.530622 0.530622 0.660970 0.380775 0.119225
0.325281 -0.601041 1.000000 0.530622 0.530622 0.660970 0.341844 0.080294
0.601041 -0.601041 0.778622 0.530622 0.530622 0.660970 0.419706 0.080294
0.463161 -0.463161 0.778622 0.311264 -0.311265 0.897903 0.380775 0.119225
0.601041 -0.325281 0.778622 0.311264 -0.311265 0.897903 0.419706 0.158156
0.188377 -0.282683 0.936442 0.311264 -0.311265 0.897903 0.341844 0.158156
0.601041 -0.325281 0.778622 -0.740184 0.419281 0.525672 0.419706 0.158156
0.693169 -0.162641 0.778622 -0.740184 0.419281 0.525672 0.445718 0.204078
0.601041 -0.000000 0.519175 -0.740184 0.419281 0.525672 0.419706 0.250000
0.000000 0.602325 1.144341 0.777159 -0.190823 0.599675 0.250000 0.420068
0.025533 0.506575 1.080782 0.777159 -0.190823 0.599675 0.295864 0.381005
0.325283 0.603295 0.723093 0.777159 -0.190823 0.599675 0.341844 0.420265
0.188377 0.367879 0.659013 -0.092669 0.838194 0.537442 0.341844 0.341844
0.326257 0.205238 0.936442 -0.092669 0.838194 0.537442 0.380775 0.295922
0.601041 0.325281 0.796603 -0.092669 0.838194 0.537442 0.419706 0.341844
0.025533 0.506575 1.080782 0.712323 -0.537197 0.451680 0.295864 0.381005
0.188377 0.367879 0.659013 0.712323 -0.537197 0.451680 0.341844 0.341844
0.325283 0.603295 0.723093 0.712323 -0.537197 0.451680 0.341844 0.420265
-0.325281 0.785298 1.144341 -0.000000 -0.614160 0.789182 0.158156 0.471731
-0.162332 0.693638 1.073009 -0.000000 -0.614160 0.789182 0.204165 0.445851
-0.000000 0.785298 1.144341 -0.000000 -0.614160 0.789182 0.250000 0.471731
0.693169 -0.162641 0.778622 0.000000 -0.000000 1.000000 0.445718 0.204078
0.326257 0.205238 0.936442 0.589724 -0.499944 0.634257 0.380775 0.295922
0.188377 0.042598 0.936442 0.589724 -0.499944 0.634257 0.341844 0.250000
0.601041 -0.000000 0.519175 0.589724 -0.499944 0.634257 0.419706 0.250000
0.601041 -0.000000 0.519175 -0.770558 0.379905 0.511774 0.419706 0.250000
0.693169 -0.162641 0.778622 -0.770558 0.379905 0.511774 0.445718 0.204078
0.785298 -0.000000 0.796603 -0.770558 0.379905 0.511774 0.471731 0.250000
-0.000000 0.785298 1.144341 -0.402293 -0.000001 0.915511 0.250000 0.471731
-0.162332 0.693638 1.073009 -0.402293 -0.000001 0.915511 0.204165 0.445851
0.000000 0.602325 1.144341 -0.402293 -0.000001 0.915511 0.250000 0.420068
-0.325281 0.601630 1.144341 0.401014 -0.000001 0.916072 0.158156 0.419872
-0.162332 0.693638 1.073009 0.401014 -0.000001 0.916072 0.204165 0.445851
-0.325281 0.785298 1.144341 0.401014 -0.000001 0.916072 0.158156 0.471731
-0.693169 0.162641 0.782741 -0.000000 -0.627358 0.778731 0.054282 0.295922
-0.785298 0.000000 0.651715 -0.000000 -0.627358 0.778731 0.028269 0.250000
-0.601041 0.000000 0.651715 -0.000000 -0.627358 0.778731 0.080294 0.250000
-0.693169 0.162641 0.782741 0.000000 0.000000 1.000000 0.054282 0.295922
-0.325281 0.601630 1.144341 -0.420126 -0.420125 0.804357 0.158156 0.419872
-0.463308 0.463308 1.000000 -0.420126 -0.420125 0.804357 0.119184 0.380817
-0.325281 0.325281 1.000000 -0.420126 -0.420125 0.804357 0.158156 0.341844
-0.601041 0.325281 0.782741 -0.844582 0.000001 0.535427 0.080294 0.341844
-0.463308 0.463308 1.000000 -0.844582 0.000001 0.535427 0.119184 0.380817
-0.601041 0.601041 0.782741 -0.844582 0.000001 0.535427 0.080294 0.419706
-0.463161 -0.463161 1.000000 0.833329 0.113939 0.540908 0.119225 0.119225
-0.325281 -0.601041 0.816624 0.833329 0.113939 0.540908 0.158156 0.080294
-0.325281 -0.325281 0.758537 0.833329 0.113939 0.540908 0.158156 0.158156
-0.601041 -0.325281 0.651715 -0.161916 0.893909 0.417982 0.080294 0.158156
-0.463161 -0.463161 1.000000 -0.161916 0.893909 0.417982 0.119225 0.119225
-0.325281 -0.325281 0.758537 -0.161916 0.893909 0.417982 0.158156 0.158156
0.162640 -0.693169 0.816624 -0.371057 -0.655052 0.658198 0.295922 0.054282
0.325281 -0.601041 1.000000 -0.371057 -0.655052 0.658198 0.341844 0.080294
0.000000 -0.601041 0.816624 -0.371057 -0.655052 0.658198 0.250000 0.080294
0.162640 -0.693169 0.816624 -0.371057 0.655050 0.658199 0.295922 0.054282
0.000000 -0.785298 0.816624 -0.371057 0.655050 0.658199 0.250000 0.028269
0.325281 -0.785298 1.000000 -0.371057 0.655050 0.658199 0.341844 0.028269
0.188377 0.042598 0.936442 0.666760 0.418490 0.616682 0.341844 0.250000
0.463161 -0.162641 0.778622 0.666760 0.418490 0.616682 0.380775 0.204078
0.601041 -0.000000 0.519175 0.666760 0.418490 0.616682 0.419706 0.250000
-0.325281 0.601630 1.144341 0.001942 -0.908780 0.417270 0.158156 0.419872
-0.299748 0.506227 0.936442 0.001942 -0.908780 0.417270 0.204020 0.380907
0.000000 0.602325 1.144341 0.001942 -0.908780 0.417270 0.250000 0.420068
0.463161 -0.162641 0.778622 0.367322 0.311401 0.876415 0.380775 0.204078
0.188377 -0.282683 0.936442 0.367322 0.311401 0.876415 0.341844 0.158156
0.601041 -0.325281 0.778622 0.367322 0.311401 0.876415 0.419706 0.158156
-0.299748 0.506227 0.936442 -0.593005 0.130896 0.794488 0.204020 0.380907
-0.136904 0.367879 1.080782 -0.593005 0.130896 0.794488 0.250000 0.341844
0.000000 0.602325 1.144341 -0.593005 0.130896 0.794488 0.250000 0.420068
-0.136904 0.367879 1.080782 0.768240 0.242414 0.592489 0.250000 0.341844
0.025737 0.205238 0.936442 0.768240 0.242414 0.592489 0.295922 0.295922
0.188377 0.367879 0.659013 0.768240 0.242414 0.592489 0.341844 0.341844
0.025737 0.205238 0.936442 -0.511997 -0.511997 0.689723 0.295922 0.295922
-0.136903 0.042598 0.694979 -0.511997 -0.511997 0.689723 0.250000 0.250000
0.188377 0.042598 0.936442 -0.511997 -0.511997 0.689723 0.341844 0.250000
0.601041 0.325281 0.796603 -0.329168 -0.324125 0.886900 0.419706 0.341844
0.463652 0.463380 0.796082 -0.329168 -0.324125 0.886900 0.380914 0.380914
0.188377 0.367879 0.659013 -0.329168 -0.324125 0.886900 0.341844 0.341844
0.463652 0.463380 0.796082 -0.451039 0.019419 0.892293 0.380914 0.380914
0.325283 0.603295 0.723093 -0.451039 0.019419 0.892293 0.341844 0.420265
0.188377 0.367879 0.659013 -0.451039 0.019419 0.892293 0.341844 0.341844
0.325283 0.603295 0.723093 0.455365 0.817114 0.353507 0.341844 0.420265
0.162950 0.693986 0.722572 0.455365 0.817114 0.353507 0.296009 0.445949
0.000000 0.602325 1.144341 0.455365 0.817114 0.353507 0.250000 0.420068
-0.000000 0.785298 1.144341 0.458579 -0.815244 0.353671 0.250000 0.471731
0.162950 0.693986 0.722572 0.458579 -0.815244 0.353671 0.296009 0.445949
0.325281 0.785298 0.722572 0.458579 -0.815244 0.353671 0.341844 0.471731
4 0 1 2 3
5 4 5 6 7 8
4 9 10 11 12
4 13 14 15 16
4 17 18 19 20
4 21 22 23 24
4 25 26 27 28
4 29 30 31 32
4 33 34 35 36
4 37 38 39 40
4 41 42 43 44
4 45 46 47 48
4 49 50 51 52
4 53 54 55 56
3 57 58 59
4 60 61 62 63
4 64 65 66 67
16 68 69 70 71 72 73 74 75 76 77 78 79 80 81 82 83
3 84 85 86
3 87 88 89
3 90 91 92
3 93 94 95
3 96 97 98
4 99 100 101 102
3 103 104 105
3 106 107 108
3 109 110 111
3 112 113 114
3 110 115 111
3 116 117 118
3 119 120 121
3 122 123 124
3 125 126 127
3 128 129 130
3 131 132 133
3 134 135 136
3 137 138 139
3 140 141 142
3 143 144 145
3 146 147 148
3 149 150 151
3 152 153 154
3 155 156 157
3 158 159 160
3 161 162 163
3 164 165 166
3 167 168 169
3 170 171 172
3 173 174 175
3 176 177 178
3 179 180 181
3 182 183 184
3 185 186 187
3 95 94 188
3 189 190 191
3 192 193 194
3 195 196 197
3 198 199 200
3 201 202 203
3 204 205 206
3 111 115 207
3 208 209 210
3 211 212 213
3 214 215 216
3 217 110 218
3 219 220 221
3 222 223 224
3 225 226 227
3 228 229 230
3 231 232 233
3 234 235 236
3 237 238 239
3 240 241 242
3 243 244 245
3 246 247 248
3 249 250 251
3 252 253 254
3 255 256 257
3 258 259 260
3 261 262 263
3 264 265 266
3 267 268 269
3 270 271 272
3 273 274 275
3 276 154 277
3 278 279 280
3 281 282 283
3 284 285 286
3 287 288 289
3 290 291 292
3 293 294 295
3 296 297 298
3 299 300 301
3 302 303 304
3 305 306 307
3 308 309 310
3 311 312 313
3 314 315 316
3 317 318 319
3 320 321 322
3 323 94 93
3 324 325 326
3 327 328 329
3 330 331 332
3 333 334 335
3 336 337 338
3 339 146 148
3 340 341 342
3 343 344 345
3 115 110 217
3 346 347 348
3 207 115 217
3 277 154 153
3 154 276 152
3 349 350 351
3 352 353 354
3 355 356 357
3 358 359 360
3 361 362 363
3 364 365 366
3 367 368 369
3 370 371 372
3 373 374 375
3 376 377 378
3 379 380 381
3 382 383 384
3 385 386 387
