# Blender v2.83.0 OBJ File: 'cutupcyl.blend'
# www.blender.org
mtllib cutupcyl.mtl
o Cylinder_Cylinder.001
v 0.000000 -1.000000 -0.850000
v 0.000000 0.840282 -0.850000
v 0.325281 -1.000000 -0.785298
v 0.325281 0.722572 -0.785298
v 0.601041 -1.000000 -0.601041
v 0.601041 0.722746 -0.601132
v 0.785298 -1.000000 -0.325281
v 0.785298 0.796603 -0.325281
v 0.850000 -1.000000 0.000000
v 0.850000 0.796603 0.000000
v 0.785298 -1.000000 0.325281
v 0.785298 0.778622 0.325281
v 0.601041 -1.000000 0.601041
v 0.601041 0.778622 0.601041
v 0.325281 -1.000000 0.785298
v 0.325281 1.000000 0.785298
v 0.000000 -1.000000 0.850000
v 0.000000 0.816624 0.850000
v -0.325281 -1.000000 0.785298
v -0.325281 0.816624 0.785298
v -0.601041 -1.000000 0.601041
v -0.601041 1.000000 0.601041
v -0.785298 -1.000000 0.325281
v -0.785298 0.651715 0.325281
v -0.850000 -1.000000 -0.000000
v -0.850000 1.000000 -0.000000
v -0.785298 -1.000000 -0.325281
v -0.785298 0.782741 -0.325281
v -0.601041 -1.000000 -0.601041
v -0.601041 0.782741 -0.601041
v -0.325281 -1.000000 -0.785298
v -0.325281 1.144341 -0.785298
v 0.597207 0.722311 -0.603465
v -0.136904 1.080782 -0.367879
v -0.000000 1.144341 -0.785298
v -0.136903 0.694979 -0.042598
v -0.136904 0.694979 0.282683
v 0.000000 1.144341 -0.602325
v 0.000000 0.816624 0.601041
v 0.000000 0.816624 0.785298
v -0.325281 1.000000 -0.325281
v -0.462184 0.936442 -0.042598
v -0.325281 1.144341 -0.601630
v -0.325281 0.816624 0.601041
v -0.325281 0.758537 0.325281
v -0.601041 0.782741 -0.325281
v -0.601041 0.651715 -0.000000
v -0.601041 0.651715 0.325281
v -0.785298 0.651715 -0.000000
v 0.188377 0.936442 -0.042598
v 0.188377 0.936442 0.282683
v 0.325281 1.000000 0.601041
v 0.325283 0.723093 -0.603295
v 0.188377 0.659013 -0.367879
v 0.601041 0.796603 -0.325281
v 0.601041 0.519175 0.000000
v 0.601041 0.778622 0.325281
v 0.785298 0.796603 0.000000
v 0.025737 0.936442 0.420563
v -0.162641 1.000000 0.463161
v -0.299544 0.694979 0.120043
v -0.463161 0.758537 0.162641
v -0.463161 1.000000 -0.162641
v 0.025737 0.936442 0.120043
v -0.299544 0.694979 -0.205238
v 0.463161 0.778622 0.463161
v 0.326257 0.936442 -0.205238
v 0.693169 0.778622 0.162641
v 0.025533 1.080782 -0.506575
v -0.463308 1.000000 -0.463308
v -0.162332 1.073009 -0.693638
v -0.693169 0.782741 -0.162641
v -0.463161 1.000000 0.463161
v -0.162640 0.816624 0.693169
v -0.693169 0.651715 0.162641
v 0.162640 0.816624 0.693169
v -0.299748 0.936442 -0.506227
v 0.025737 0.936442 -0.205238
v 0.463161 0.778622 0.162641
v 0.162950 0.722572 -0.693986
v 0.463652 0.796082 -0.463380
vt 1.000000 0.500000
vt 1.000000 1.000000
vt 0.937500 1.000000
vt 0.937500 0.500000
vt 0.875869 1.000000
vt 0.875000 1.000000
vt 0.875000 0.500000
vt 0.812500 1.000000
vt 0.812500 0.500000
vt 0.750000 1.000000
vt 0.750000 0.500000
vt 0.687500 1.000000
vt 0.687500 0.500000
vt 0.625000 1.000000
vt 0.625000 0.500000
vt 0.562500 1.000000
vt 0.562500 0.500000
vt 0.500000 1.000000
vt 0.500000 0.500000
vt 0.437500 1.000000
vt 0.437500 0.500000
vt 0.375000 1.000000
vt 0.375000 0.500000
vt 0.312500 1.000000
vt 0.312500 0.500000
vt 0.250000 1.000000
vt 0.250000 0.500000
vt 0.187500 1.000000
vt 0.187500 0.500000
vt 0.125000 1.000000
vt 0.125000 0.500000
vt 0.341844 0.471731
vt 0.296009 0.445949
vt 0.341844 0.420265
vt 0.062500 1.000000
vt 0.062500 0.500000
vt 0.000000 1.000000
vt 0.000000 0.500000
vt 0.750000 0.490000
vt 0.841844 0.471731
vt 0.919706 0.419706
vt 0.971731 0.341844
vt 0.990000 0.250000
vt 0.971731 0.158156
vt 0.919706 0.080294
vt 0.841844 0.028269
vt 0.750000 0.010000
vt 0.658156 0.028269
vt 0.580294 0.080294
vt 0.528269 0.158156
vt 0.510000 0.250000
vt 0.528269 0.341844
vt 0.580294 0.419706
vt 0.658156 0.471731
vt 0.490000 0.250000
vt 0.471731 0.250000
vt 0.471731 0.158156
vt 0.341844 0.028269
vt 0.250000 0.028269
vt 0.250000 0.010000
vt 0.419706 0.080294
vt 0.341844 0.080294
vt 0.419706 0.158156
vt 0.471731 0.341844
vt 0.419706 0.341844
vt 0.419706 0.250000
vt 0.418623 0.420429
vt 0.380914 0.380914
vt 0.419706 0.419706
vt 0.158156 0.471731
vt 0.250000 0.471731
vt 0.250000 0.490000
vt 0.250000 0.250000
vt 0.250000 0.341844
vt 0.204078 0.295922
vt 0.158156 0.028269
vt 0.204020 0.380907
vt 0.158156 0.341844
vt 0.204078 0.054282
vt 0.250000 0.420068
vt 0.204165 0.445851
vt 0.158156 0.419872
vt 0.250000 0.080294
vt 0.250000 0.158156
vt 0.204078 0.119225
vt 0.204078 0.204078
vt 0.158156 0.158156
vt 0.158156 0.250000
vt 0.119225 0.204078
vt 0.158156 0.080294
vt 0.080294 0.080294
vt 0.119225 0.295922
vt 0.080294 0.250000
vt 0.080294 0.419706
vt 0.119225 0.119225
vt 0.119184 0.380817
vt 0.080294 0.341844
vt 0.028269 0.341844
vt 0.054282 0.295922
vt 0.080294 0.158156
vt 0.054282 0.204078
vt 0.028269 0.158156
vt 0.028269 0.250000
vt 0.010000 0.250000
vt 0.341844 0.250000
vt 0.341844 0.341844
vt 0.295922 0.295922
vt 0.295864 0.381005
vt 0.295922 0.054282
vt 0.341844 0.158156
vt 0.295922 0.119225
vt 0.295922 0.204078
vt 0.380775 0.295922
vt 0.380775 0.119225
vt 0.380775 0.204078
vt 0.445718 0.204078
vn 0.1951 0.0000 -0.9808
vn 0.5555 0.0000 -0.8315
vn 0.8315 -0.0000 -0.5555
vn 0.9808 0.0000 -0.1951
vn 0.9808 0.0000 0.1951
vn 0.8315 0.0000 0.5556
vn 0.5556 0.0000 0.8315
vn 0.1951 0.0000 0.9808
vn -0.1951 0.0000 0.9808
vn -0.5556 0.0000 0.8315
vn -0.8315 0.0000 0.5556
vn -0.9808 0.0000 0.1951
vn -0.9808 0.0000 -0.1951
vn -0.8315 0.0000 -0.5556
vn -0.0016 1.0000 -0.0029
vn -0.5556 0.0000 -0.8315
vn -0.1951 0.0000 -0.9808
vn 0.0000 -1.0000 0.0000
vn 0.0000 0.9985 0.0552
vn -0.4911 0.8711 0.0000
vn 0.6260 0.7798 0.0000
vn 0.0000 1.0000 0.0000
vn 0.0000 0.7609 0.6489
vn 0.0047 0.8867 -0.4624
vn 0.0000 0.2081 -0.9781
vn -0.6074 0.5121 0.6074
vn -0.4350 0.8286 -0.3524
vn -0.0013 0.7892 -0.6142
vn 0.8036 0.3518 -0.4800
vn 0.2564 0.9319 -0.2564
vn 0.2606 0.2009 -0.9443
vn -0.6102 0.6001 0.5173
vn 0.5537 0.8327 0.0000
vn -0.8557 0.4544 0.2475
vn -0.7952 0.6064 -0.0000
vn 0.4844 0.7285 0.4844
vn -0.5262 0.6679 0.5262
vn 0.5506 0.7743 0.3119
vn 0.0000 0.6208 -0.7840
vn 0.9805 0.1822 0.0734
vn 0.9832 0.1826 -0.0000
vn 0.5444 0.6382 -0.5444
vn 0.5806 0.4478 0.6800
vn -0.7481 0.6635 0.0000
vn 0.0029 1.0000 -0.0029
vn -0.1218 0.9821 -0.1437
vn 0.5570 0.6319 0.5389
vn 0.0000 0.9660 -0.2586
vn 0.5925 0.6298 -0.5023
vn -0.0970 0.9938 0.0549
vn -0.8611 0.4714 0.1902
vn -0.8330 0.5533 0.0000
vn 0.4980 0.8672 -0.0000
vn -0.6124 0.7905 0.0000
vn -0.5506 0.7743 0.3119
vn -0.7876 0.6030 -0.1270
vn -0.4378 0.7766 0.4531
vn -0.4876 0.6568 -0.5752
vn 0.5120 0.6897 0.5120
vn -0.5480 0.6956 -0.4646
vn -0.8294 0.5587 -0.0000
vn -0.0235 0.5076 -0.8613
vn 0.0000 0.6010 0.7993
vn -0.6078 0.6042 -0.5153
vn 0.2483 0.9357 -0.2505
vn -0.6170 0.4885 -0.6170
vn 0.8457 0.5304 -0.0582
vn -0.1890 0.6330 0.7507
vn 0.3763 0.8150 0.4407
vn -0.8048 0.4503 0.3865
vn -0.3454 0.8916 0.2928
vn 0.8464 0.2553 0.4673
vn 0.4805 0.7767 0.4073
vn 0.9838 0.1589 0.0830
vn 0.9328 0.3604 -0.0000
vn -0.8852 0.4316 0.1739
vn -0.5120 0.6897 -0.5120
vn -0.5120 0.6897 0.5120
vn 0.6408 0.6518 -0.4057
vn 0.0514 0.3695 0.9278
vn -0.7852 0.5985 -0.1589
vn 0.5120 0.6897 -0.5120
vn 0.5306 0.6610 -0.5306
vn 0.3113 0.8979 0.3113
vn -0.7402 0.5257 -0.4193
vn 0.7772 0.5997 0.1908
vn -0.0927 0.5374 -0.8382
vn 0.7123 0.4517 0.5372
vn -0.0000 0.7892 0.6142
vn 0.5897 0.6343 0.4999
vn -0.7706 0.5118 -0.3799
vn -0.4023 0.9155 0.0000
vn 0.4010 0.9161 0.0000
vn -0.0000 0.7787 0.6274
vn -0.4201 0.8044 0.4201
vn -0.8446 0.5354 -0.0000
vn 0.8333 0.5409 -0.1139
vn -0.1619 0.4180 -0.8939
vn -0.3711 0.6582 0.6551
vn -0.3711 0.6582 -0.6551
vn 0.6668 0.6167 -0.4185
vn 0.0019 0.4173 0.9088
vn 0.3673 0.8764 -0.3114
vn -0.5930 0.7945 -0.1309
vn 0.7682 0.5925 -0.2424
vn -0.3292 0.8869 0.3241
vn -0.4510 0.8923 -0.0194
vn 0.4554 0.3535 -0.8171
vn 0.4586 0.3537 0.8152
usemtl None
s off
f 1/1/1 2/2/1 4/3/1 3/4/1
f 3/4/2 4/3/2 33/5/2 6/6/2 5/7/2
f 5/7/3 6/6/3 8/8/3 7/9/3
f 7/9/4 8/8/4 10/10/4 9/11/4
f 9/11/5 10/10/5 12/12/5 11/13/5
f 11/13/6 12/12/6 14/14/6 13/15/6
f 13/15/7 14/14/7 16/16/7 15/17/7
f 15/17/8 16/16/8 18/18/8 17/19/8
f 17/19/9 18/18/9 20/20/9 19/21/9
f 19/21/10 20/20/10 22/22/10 21/23/10
f 21/23/11 22/22/11 24/24/11 23/25/11
f 23/25/12 24/24/12 26/26/12 25/27/12
f 25/27/13 26/26/13 28/28/13 27/29/13
f 27/29/14 28/28/14 30/30/14 29/31/14
f 4/32/15 80/33/15 53/34/15
f 29/31/16 30/30/16 32/35/16 31/36/16
f 31/36/17 32/35/17 2/37/17 1/38/17
f 1/39/18 3/40/18 5/41/18 7/42/18 9/43/18 11/44/18 13/45/18 15/46/18 17/47/18 19/48/18 21/49/18 23/50/18 25/51/18 27/52/18 29/53/18 31/54/18
f 10/55/19 58/56/19 12/57/19
f 16/58/20 40/59/20 18/60/20
f 14/61/21 52/62/21 16/58/21
f 12/57/22 57/63/22 14/61/22
f 8/64/23 55/65/23 56/66/23
f 33/67/24 53/34/24 81/68/24 6/69/24
f 32/70/25 35/71/25 2/72/25
f 36/73/26 34/74/26 65/75/26
f 18/60/22 40/59/22 20/76/22
f 34/74/27 77/77/27 41/78/27
f 40/59/22 74/79/22 20/76/22
f 38/80/28 71/81/28 43/82/28
f 39/83/29 37/84/29 60/85/29
f 37/84/30 61/86/30 45/87/30
f 2/72/31 35/71/31 4/32/31
f 45/87/32 42/88/32 62/89/32
f 20/76/33 44/90/33 22/91/33
f 42/88/34 63/92/34 47/93/34
f 43/82/35 32/70/35 30/94/35
f 44/90/36 73/95/36 22/91/36
f 41/78/37 70/96/37 46/97/37
f 46/97/22 30/94/22 28/98/22
f 47/93/38 46/97/38 72/99/38
f 48/100/22 47/93/22 75/101/22
f 22/91/39 48/100/39 24/102/39
f 49/103/40 28/98/40 26/104/40
f 24/102/41 49/103/41 26/104/41
f 50/105/42 54/106/42 78/107/42
f 54/106/43 69/108/43 34/74/43
f 16/58/44 52/62/44 76/109/44
f 53/34/45 33/67/45 4/32/45
f 52/62/46 51/110/46 59/111/46
f 51/110/22 50/105/22 64/112/22
f 56/66/47 55/65/47 67/113/47
f 6/69/48 55/65/48 8/64/48
f 14/61/22 57/63/22 66/114/22
f 57/63/49 56/66/49 79/115/49
f 58/56/22 10/55/22 8/64/22
f 12/57/50 58/56/50 68/116/50
f 39/83/51 59/111/51 37/84/51
f 56/66/52 58/56/52 8/64/52
f 51/110/53 79/115/53 50/105/53
f 20/76/22 74/79/22 44/90/22
f 47/93/54 48/100/54 62/89/54
f 28/98/55 49/103/55 72/99/55
f 45/87/56 44/90/56 60/85/56
f 39/83/22 40/59/22 76/109/22
f 59/111/57 39/83/57 52/62/57
f 37/84/58 59/111/58 51/110/58
f 42/88/59 61/86/59 36/73/59
f 46/97/60 63/92/60 41/78/60
f 37/84/61 64/112/61 36/73/61
f 60/85/62 37/84/62 45/87/62
f 60/85/63 44/90/63 39/83/63
f 50/105/64 67/113/64 54/106/64
f 6/69/65 81/68/65 55/65/65
f 22/91/66 73/95/66 48/100/66
f 36/73/22 61/86/22 37/84/22
f 45/87/67 61/86/67 42/88/67
f 36/73/68 78/107/68 34/74/68
f 34/74/69 69/108/69 38/80/69
f 62/89/70 42/88/70 47/93/70
f 62/89/71 48/100/71 45/87/71
f 42/88/72 65/75/72 41/78/72
f 41/78/73 63/92/73 42/88/73
f 41/78/74 77/77/74 43/82/74
f 24/102/22 75/101/22 49/103/22
f 38/80/75 80/33/75 35/71/75
f 47/93/76 63/92/76 46/97/76
f 36/73/77 64/112/77 50/105/77
f 64/112/78 37/84/78 51/110/78
f 51/110/79 52/62/79 66/114/79
f 41/78/80 65/75/80 34/74/80
f 30/94/81 70/96/81 43/82/81
f 65/75/82 42/88/82 36/73/82
f 66/114/83 52/62/83 14/61/83
f 66/114/84 57/63/84 51/110/84
f 57/63/85 68/116/85 56/66/85
f 38/80/86 69/108/86 53/34/86
f 54/106/87 67/113/87 55/65/87
f 69/108/88 54/106/88 53/34/88
f 32/70/89 71/81/89 35/71/89
f 68/116/22 57/63/22 12/57/22
f 67/113/90 50/105/90 56/66/90
f 56/66/91 68/116/91 58/56/91
f 35/71/92 71/81/92 38/80/92
f 43/82/93 71/81/93 32/70/93
f 72/99/94 49/103/94 47/93/94
f 72/99/22 46/97/22 28/98/22
f 43/82/95 70/96/95 41/78/95
f 46/97/96 70/96/96 30/94/96
f 74/79/22 40/59/22 39/83/22
f 73/95/97 44/90/97 45/87/97
f 44/90/22 74/79/22 39/83/22
f 49/103/22 75/101/22 47/93/22
f 75/101/22 24/102/22 48/100/22
f 48/100/98 73/95/98 45/87/98
f 76/109/99 52/62/99 39/83/99
f 76/109/100 40/59/100 16/58/100
f 50/105/101 79/115/101 56/66/101
f 43/82/102 77/77/102 38/80/102
f 79/115/103 51/110/103 57/63/103
f 77/77/104 34/74/104 38/80/104
f 34/74/105 78/107/105 54/106/105
f 78/107/78 36/73/78 50/105/78
f 55/65/106 81/68/106 54/106/106
f 81/68/107 53/34/107 54/106/107
f 53/34/108 80/33/108 38/80/108
f 35/71/109 80/33/109 4/32/109
